<svg width="1805" height="479" viewBox="0 0 1805 479" fill="none" xmlns="http://www.w3.org/2000/svg">
<path d="M299.396 123.8V373H274.12V173.64L176.22 341.316H163.76L65.86 174.708V373H40.584V123.8H62.3L170.524 308.564L277.68 123.8H299.396ZM588.852 185.744H614.128V373H588.852V185.744ZM601.668 144.804C596.446 144.804 592.056 143.024 588.496 139.464C584.936 135.904 583.156 131.632 583.156 126.648C583.156 121.901 584.936 117.748 588.496 114.188C592.056 110.628 596.446 108.848 601.668 108.848C606.889 108.848 611.28 110.628 614.84 114.188C618.4 117.511 620.18 121.545 620.18 126.292C620.18 131.513 618.4 135.904 614.84 139.464C611.28 143.024 606.889 144.804 601.668 144.804ZM898.057 108.848H923.333V373H898.057V108.848ZM1370.31 287.204H1213.67C1215.09 306.665 1222.57 322.448 1236.1 334.552C1249.63 346.419 1266.71 352.352 1287.36 352.352C1298.99 352.352 1309.67 350.335 1319.4 346.3C1329.13 342.028 1337.56 335.857 1344.68 327.788L1358.92 344.164C1350.61 354.132 1340.17 361.727 1327.59 366.948C1315.25 372.169 1301.6 374.78 1286.65 374.78C1267.43 374.78 1250.34 370.745 1235.39 362.676C1220.67 354.369 1209.16 342.977 1200.85 328.5C1192.55 314.023 1188.39 297.647 1188.39 279.372C1188.39 261.097 1192.31 244.721 1200.14 230.244C1208.21 215.767 1219.13 204.493 1232.89 196.424C1246.9 188.355 1262.56 184.32 1279.89 184.32C1297.21 184.32 1312.76 188.355 1326.52 196.424C1340.29 204.493 1351.09 215.767 1358.92 230.244C1366.75 244.484 1370.67 260.86 1370.67 279.372L1370.31 287.204ZM1279.89 206.036C1261.85 206.036 1246.66 211.851 1234.32 223.48C1222.21 234.872 1215.33 249.824 1213.67 268.336H1346.46C1344.8 249.824 1337.8 234.872 1325.45 223.48C1313.35 211.851 1298.16 206.036 1279.89 206.036ZM1685.91 374.78C1670.72 374.78 1656.13 372.644 1642.12 368.372C1628.36 363.863 1617.56 358.285 1609.73 351.64L1621.12 331.704C1628.95 337.875 1638.8 342.977 1650.67 347.012C1662.53 350.809 1674.87 352.708 1687.69 352.708C1704.78 352.708 1717.36 350.097 1725.43 344.876C1733.73 339.417 1737.89 331.823 1737.89 322.092C1737.89 315.209 1735.63 309.869 1731.12 306.072C1726.61 302.037 1720.92 299.071 1714.03 297.172C1707.15 295.036 1698.01 293.019 1686.62 291.12C1671.43 288.272 1659.21 285.424 1649.95 282.576C1640.7 279.491 1632.75 274.388 1626.1 267.268C1619.69 260.148 1616.49 250.299 1616.49 237.72C1616.49 222.056 1623.02 209.24 1636.07 199.272C1649.12 189.304 1667.28 184.32 1690.54 184.32C1702.64 184.32 1714.75 185.981 1726.85 189.304C1738.95 192.389 1748.92 196.543 1756.75 201.764L1745.72 222.056C1730.29 211.376 1711.9 206.036 1690.54 206.036C1674.4 206.036 1662.18 208.884 1653.87 214.58C1645.8 220.276 1641.77 227.752 1641.77 237.008C1641.77 244.128 1644.02 249.824 1648.53 254.096C1653.28 258.368 1659.09 261.572 1665.97 263.708C1672.86 265.607 1682.35 267.624 1694.45 269.76C1709.41 272.608 1721.39 275.456 1730.41 278.304C1739.43 281.152 1747.14 286.017 1753.55 292.9C1759.96 299.783 1763.16 309.276 1763.16 321.38C1763.16 337.756 1756.28 350.809 1742.51 360.54C1728.99 370.033 1710.12 374.78 1685.91 374.78Z" fill="black"/>
<rect x="4" y="426" width="669.802" height="53" fill="black"/>
<rect x="884.281" y="426" width="920.719" height="53" fill="black"/>
<rect x="4" width="1801" height="53" fill="black"/>
</svg>
