<svg width="920" height="273" viewBox="0 0 920 273" fill="none" xmlns="http://www.w3.org/2000/svg">
<path d="M261.077 29.8805V269.078H213.139V113.497L149.108 269.078H112.812L48.438 113.497V269.078H0.5V29.8805H54.9439L130.96 207.736L206.976 29.8805H261.077Z" fill="url(#paint0_linear_28_11)"/>
<path d="M356.41 79.2277V269.078H308.472V79.2277H356.41Z" fill="url(#paint1_linear_28_11)"/>
<path d="M737.271 170.04C737.271 176.894 736.815 183.063 735.902 188.546H597.224C598.365 202.253 603.159 212.991 611.605 220.758C620.051 228.526 630.438 232.41 642.765 232.41C660.57 232.41 673.24 224.756 680.773 209.45H732.477C726.999 227.726 716.498 242.805 700.975 254.685C685.452 266.336 666.391 272.162 643.792 272.162C625.53 272.162 609.094 268.164 594.484 260.168C580.103 251.943 568.803 240.406 560.585 225.556C552.596 210.706 548.601 193.572 548.601 174.153C548.601 154.505 552.596 137.256 560.585 122.407C568.575 107.557 579.761 96.1337 594.142 88.1376C608.523 80.1415 625.073 76.1435 643.792 76.1435C661.826 76.1435 677.919 80.0273 692.073 87.7949C706.454 95.5625 717.525 106.643 725.287 121.036C733.276 135.2 737.271 151.535 737.271 170.04ZM687.621 156.333C687.393 143.996 682.941 134.172 674.267 126.861C665.592 119.322 654.978 115.553 642.422 115.553C630.552 115.553 620.508 119.208 612.29 126.519C604.3 133.601 599.392 143.539 597.566 156.333H687.621Z" fill="url(#paint2_linear_28_11)"/>
<path d="M844.854 272.162C829.331 272.162 815.406 269.42 803.079 263.937C790.752 258.226 780.936 250.572 773.631 240.977C766.555 231.382 762.674 220.758 761.989 209.107H810.27C811.183 216.418 814.721 222.472 820.885 227.269C827.276 232.067 835.152 234.466 844.511 234.466C853.642 234.466 860.719 232.638 865.741 228.983C870.991 225.328 873.616 220.644 873.616 214.933C873.616 208.764 870.421 204.195 864.029 201.225C857.865 198.027 847.935 194.6 834.239 190.944C820.086 187.517 808.444 183.976 799.312 180.321C790.41 176.666 782.648 171.068 776.028 163.529C769.637 155.99 766.441 145.824 766.441 133.03C766.441 122.521 769.408 112.925 775.343 104.244C781.507 95.5625 790.181 88.7088 801.367 83.6827C812.781 78.6566 826.135 76.1435 841.429 76.1435C864.029 76.1435 882.063 81.855 895.531 93.278C908.999 104.472 916.418 119.665 917.788 138.856H871.904C871.219 131.316 868.024 125.377 862.317 121.036C856.838 116.467 849.419 114.182 840.06 114.182C831.385 114.182 824.651 115.781 819.857 118.98C815.292 122.178 813.009 126.633 813.009 132.345C813.009 138.741 816.205 143.653 822.597 147.08C828.988 150.279 838.918 153.591 852.387 157.018C866.083 160.445 877.383 163.986 886.286 167.642C895.189 171.297 902.836 177.008 909.228 184.776C915.848 192.315 919.272 202.367 919.5 214.933C919.5 225.899 916.418 235.722 910.255 244.404C904.32 253.085 895.645 259.939 884.231 264.965C873.046 269.763 859.92 272.162 844.854 272.162Z" fill="url(#paint3_linear_28_11)"/>
<path d="M311.554 48.7284C317.261 53.9829 324.338 56.6102 332.784 56.6102C341.23 56.6102 348.192 53.9829 353.671 48.7284C359.378 43.2453 362.231 36.5058 362.231 28.5097C362.231 20.5136 359.378 13.8883 353.671 8.63372C348.192 3.15069 341.23 0.40918 332.784 0.40918C324.338 0.40918 317.261 3.15069 311.554 8.63372C306.075 13.8883 303.336 20.5136 303.336 28.5097C303.336 36.5058 306.075 43.2453 311.554 48.7284Z" fill="url(#paint4_linear_28_11)"/>
<path d="M510.5 6.16162V263.077H410.739V6.16162H510.5Z" stroke="url(#paint5_linear_28_11)" stroke-width="12"/>
<defs>
<linearGradient id="paint0_linear_28_11" x1="167.981" y1="-3.58718" x2="461.298" y2="463.014" gradientUnits="userSpaceOnUse">
<stop stop-color="#F53844"/>
<stop offset="1" stop-color="#42378F"/>
</linearGradient>
<linearGradient id="paint1_linear_28_11" x1="167.981" y1="-3.58718" x2="461.298" y2="463.014" gradientUnits="userSpaceOnUse">
<stop stop-color="#F53844"/>
<stop offset="1" stop-color="#42378F"/>
</linearGradient>
<linearGradient id="paint2_linear_28_11" x1="167.981" y1="-3.58718" x2="461.298" y2="463.014" gradientUnits="userSpaceOnUse">
<stop stop-color="#F53844"/>
<stop offset="1" stop-color="#42378F"/>
</linearGradient>
<linearGradient id="paint3_linear_28_11" x1="167.981" y1="-3.58718" x2="461.298" y2="463.014" gradientUnits="userSpaceOnUse">
<stop stop-color="#F53844"/>
<stop offset="1" stop-color="#42378F"/>
</linearGradient>
<linearGradient id="paint4_linear_28_11" x1="167.981" y1="-3.58718" x2="461.298" y2="463.014" gradientUnits="userSpaceOnUse">
<stop stop-color="#F53844"/>
<stop offset="1" stop-color="#42378F"/>
</linearGradient>
<linearGradient id="paint5_linear_28_11" x1="425.107" y1="-3.79302" x2="546.408" y2="19.9209" gradientUnits="userSpaceOnUse">
<stop stop-color="#F53844"/>
<stop offset="1" stop-color="#42378F"/>
</linearGradient>
</defs>
</svg>
